<?xml version="1.0" standalone="no"?>
<!DOCTYPE svg PUBLIC "-//W3C//DTD SVG 20010904//EN"
 "http://www.w3.org/TR/2001/REC-SVG-20010904/DTD/svg10.dtd">
<svg version="1.0" xmlns="http://www.w3.org/2000/svg"
 width="512.000000pt" height="512.000000pt" viewBox="0 0 512.000000 512.000000"
 preserveAspectRatio="xMidYMid meet">
<metadata>
Created by potrace 1.11, written by Peter Selinger 2001-2013
</metadata>
<g transform="translate(0.000000,512.000000) scale(0.100000,-0.100000)"
fill="#000000" stroke="none">
<path d="M2380 4920 c-1121 -78 -2066 -892 -2310 -1990 -85 -386 -77 -822 24
-1200 l25 -91 -31 -46 c-70 -103 -103 -262 -79 -383 12 -58 178 -532 223 -635
91 -205 276 -327 498 -327 86 0 107 4 228 45 l133 45 47 -41 c162 -140 400
-135 555 12 113 107 161 266 123 406 -15 57 -453 1266 -484 1335 -30 69 -111
151 -185 189 -126 64 -259 64 -384 1 -32 -16 -59 -28 -61 -26 -7 8 -2 318 8
391 28 222 84 406 186 608 42 84 111 200 140 236 2 2 52 -31 111 -74 156 -113
173 -120 268 -120 98 0 128 15 240 115 521 468 1289 468 1810 0 112 -100 142
-114 240 -115 95 0 114 8 270 120 58 43 107 76 109 74 61 -76 178 -297 222
-419 82 -228 104 -348 111 -609 3 -123 2 -212 -3 -209 -5 2 -35 16 -66 32
-169 81 -365 44 -490 -93 -62 -68 -62 -68 -209 -473 -136 -374 -139 -392 -83
-444 29 -28 43 -34 80 -34 83 0 89 11 233 408 82 225 137 362 152 379 29 31
94 62 132 63 60 0 134 -46 164 -104 34 -64 26 -90 -217 -761 -127 -352 -240
-654 -250 -670 -42 -68 -155 -99 -227 -62 -78 41 -113 121 -94 216 10 52 10
66 -4 95 -29 60 -91 86 -148 62 -109 -45 -128 -255 -40 -418 14 -26 50 -71 80
-99 155 -147 393 -152 555 -12 l47 41 133 -45 c121 -41 142 -45 228 -45 222 0
407 122 498 327 45 103 211 577 223 635 23 120 -8 280 -76 381 l-34 49 24 87
c108 405 110 870 6 1280 -208 821 -830 1498 -1631 1778 -309 108 -690 158
-1020 135z m490 -256 c327 -42 678 -172 950 -353 804 -533 1194 -1474 999
-2409 -14 -64 -26 -102 -33 -99 -6 2 -49 17 -94 33 l-84 29 6 35 c2 19 12 74
20 121 38 204 38 493 1 710 -156 918 -919 1636 -1847 1738 -874 97 -1716 -367
-2116 -1165 -194 -388 -263 -862 -186 -1284 8 -47 18 -101 20 -120 l6 -35 -84
-29 c-45 -16 -88 -31 -94 -33 -25 -9 -72 277 -81 492 -25 636 220 1260 677
1715 512 512 1211 747 1940 654z m-89 -439 c344 -40 684 -185 954 -406 101
-83 191 -177 180 -188 -27 -25 -199 -141 -210 -141 -7 0 -48 32 -90 70 -222
202 -513 339 -820 386 -180 27 -448 14 -625 -30 -238 -61 -486 -193 -665 -356
-42 -38 -83 -70 -89 -70 -10 0 -194 124 -214 145 -8 8 99 116 183 184 390 320
891 465 1396 406z m-1763 -2191 c53 -22 89 -60 111 -119 111 -296 454 -1255
458 -1280 10 -64 -36 -148 -100 -182 -72 -37 -185 -6 -227 62 -10 16 -123 318
-250 670 -174 481 -232 651 -232 686 0 73 40 132 112 163 45 20 82 20 128 0z
m-658 -497 c0 -2 -15 -16 -32 -33 l-33 -29 29 33 c28 30 36 37 36 29z m-113
-264 c-2 -16 -4 -5 -4 22 0 28 2 40 4 28 2 -13 2 -35 0 -50z m244 -660 c13
-16 12 -17 -3 -4 -17 13 -22 21 -14 21 2 0 10 -8 17 -17z m489 -53 c0 -5 -5
-10 -11 -10 -5 0 -7 5 -4 10 3 6 8 10 11 10 2 0 4 -4 4 -10z m-243 -76 c-3 -3
-12 -4 -19 -1 -8 3 -5 6 6 6 11 1 17 -2 13 -5z"/>
<path d="M2124 2850 c-28 -11 -61 -54 -69 -89 -8 -38 16 -95 51 -118 44 -29
109 -23 145 13 92 92 -7 243 -127 194z"/>
<path d="M2515 2851 c-99 -44 -92 -184 11 -220 76 -27 149 30 149 116 0 34 -6
49 -31 74 -33 33 -92 46 -129 30z"/>
<path d="M2893 2844 c-41 -20 -67 -75 -59 -122 18 -115 178 -132 223 -24 41
98 -67 196 -164 146z"/>
</g>
</svg>
